<?xml version="1.0" encoding="UTF-8"?>
<svg width="512" height="512" viewBox="0 0 512 512" xmlns="http://www.w3.org/2000/svg">
    <circle cx="256" cy="256" r="200" fill="#00c853"/>
    <path d="M256 126c-71.68 0-130 58.32-130 130s58.32 130 130 130 130-58.32 130-130S327.68 126 256 126zm0 220c-49.63 0-90-40.37-90-90s40.37-90 90-90 90 40.37 90 90-40.37 90-90 90z" fill="#fff"/>
    <path d="M256 196c-33.08 0-60 26.92-60 60s26.92 60 60 60 60-26.92 60-60-26.92-60-60-60zm0 100c-22.06 0-40-17.94-40-40s17.94-40 40-40 40 17.94 40 40-17.94 40-40 40z" fill="#fff"/>
</svg>